<svg version="1.1" id="Layer_1" xmlns="http://www.w3.org/2000/svg" xmlns:xlink="http://www.w3.org/1999/xlink" x="0px" y="0px"
	 width="100%" viewBox="0 0 1548 460" enable-background="new 0 0 1548 460" xml:space="preserve">
<path fill="#FEFEFF" opacity="1.000000" stroke="none" 
	d="
M1549.000000,50.999992 
	C1549.000000,187.638138 1549.000000,324.276276 1549.000000,460.954468 
	C1033.000000,460.954468 517.000000,460.954468 1.000000,460.954468 
	C1.000000,439.913452 1.000000,418.917999 1.388281,397.484009 
	C23.645220,403.028351 45.863018,407.024689 68.433250,409.258911 
	C114.329323,413.802063 159.865845,411.821533 205.052979,402.407135 
	C230.266891,397.153992 255.337051,390.921326 280.763306,387.036896 
	C334.329315,378.853516 387.658600,381.989563 440.527802,393.606964 
	C444.854126,394.557617 449.192383,395.454041 454.345154,396.550079 
	C453.351166,394.570831 452.831909,393.403534 452.200806,392.300110 
	C443.603210,377.268311 434.867218,362.313507 426.476227,347.167450 
	C424.616791,343.811066 422.257446,342.398499 418.719604,342.019043 
	C402.839661,340.315918 387.003235,338.039459 371.084534,336.897339 
	C325.942261,333.658630 281.133820,336.627869 237.261658,347.877747 
	C189.339661,360.166107 140.928162,366.489380 91.460136,363.969391 
	C85.907547,363.686523 80.370323,363.101959 73.941231,362.586334 
	C125.368279,272.827026 176.307861,183.918488 227.705719,94.210098 
	C258.825745,148.383347 289.530151,201.833099 320.503723,255.751404 
	C318.663757,255.902313 317.698792,256.002411 316.731262,256.057739 
	C291.933563,257.475525 267.316650,260.398529 243.135422,266.126648 
	C216.742874,272.378601 190.412735,278.803650 163.327942,281.476318 
	C161.515472,281.655212 159.355591,283.731781 158.318542,285.492004 
	C150.121262,299.405579 142.148361,313.451447 134.142853,327.477448 
	C133.614304,328.403473 133.384720,329.500153 132.564835,331.762726 
	C151.152954,329.598236 168.965195,328.376923 186.445038,325.279694 
	C209.999527,321.106140 233.244064,315.216217 256.718689,310.551331 
	C294.325775,303.078033 332.336304,301.227325 370.563568,303.600159 
	C380.981110,304.246826 391.373291,305.301422 402.924927,306.264526 
	C344.302643,203.961746 286.151337,102.480865 228.000000,0.999996 
	C380.359161,1.000000 532.718323,1.000000 685.534851,1.467622 
	C685.992188,6.862276 685.992188,11.789308 685.992188,16.683323 
	C690.860046,16.683323 695.233093,16.683323 700.000000,16.683323 
	C700.000000,11.241548 700.000000,6.120774 700.000000,1.000000 
	C702.700256,1.000000 705.400574,1.000000 708.470947,1.461996 
	C708.841125,6.858601 708.841125,11.793210 708.841125,16.705317 
	C713.769409,16.705317 718.171814,16.705317 723.000000,16.705317 
	C723.000000,11.272676 723.000000,6.136338 723.000000,1.000000 
	C998.333313,1.000000 1273.666626,1.000000 1549.000000,1.000000 
	C1549.000000,14.090187 1549.000000,27.083839 1548.653076,40.380028 
	C1545.624634,27.586403 1534.955933,18.550327 1522.028442,18.425943 
	C1509.348755,18.303944 1498.516235,27.065111 1495.549805,39.841656 
	C1492.805786,51.660061 1499.065308,64.512871 1510.126953,69.772820 
	C1521.600464,75.228622 1535.620850,71.979233 1543.216797,61.726120 
	C1545.610107,58.495689 1547.097778,54.594315 1549.000000,50.999992 
M1014.056946,264.005890 
	C1014.056946,264.005890 1014.202881,263.704681 1013.849487,263.209991 
	C1013.265503,263.084656 1012.681458,262.959320 1012.029419,262.990936 
	C1012.029419,262.990936 1012.125244,262.849182 1011.764771,262.357391 
	C1011.186401,262.235992 1010.607971,262.114624 1009.671021,261.814758 
	C1009.671021,261.814758 1009.273254,261.768066 1008.749512,261.240356 
	C1005.801331,260.730103 1002.853210,260.219879 999.163574,259.420807 
	C998.107300,259.335693 997.050964,259.250549 995.236145,258.946228 
	C992.488770,258.943115 989.741333,258.939972 986.067871,258.776917 
	C972.732849,258.758026 959.397888,258.739136 945.457275,258.361694 
	C943.615295,258.480713 941.773254,258.599701 939.311890,258.616760 
	C938.896118,258.650452 938.480408,258.684143 937.393188,258.350189 
	C935.784851,258.350189 934.176453,258.350189 932.336487,258.350189 
	C932.199036,259.760162 932.023132,260.724457 932.022766,261.688843 
	C932.007629,304.498230 931.997742,347.307648 932.052124,390.116974 
	C932.053833,391.485474 932.733032,392.853119 933.725708,394.727570 
	C953.901733,394.802521 974.077698,394.884125 994.253784,394.919525 
	C994.845764,394.920563 995.438721,394.434052 996.065063,393.896606 
	C996.065063,393.896606 995.866821,393.698395 996.691528,393.951752 
	C1000.634033,392.984039 1004.633972,392.203613 1008.508484,391.014465 
	C1021.408997,387.055115 1031.117920,379.103027 1037.046631,366.953583 
	C1049.388672,341.662354 1048.657593,315.851624 1039.061523,290.033997 
	C1035.461182,280.347412 1029.092773,272.426605 1019.757812,266.350769 
	C1018.577026,265.800903 1017.396240,265.251038 1016.042786,265.002594 
	C1016.042786,265.002594 1016.206604,264.699554 1015.869324,264.221405 
	C1015.317932,264.050354 1014.766479,263.879333 1014.056946,264.005890 
M1309.435059,393.800385 
	C1308.985107,392.501465 1308.535156,391.202515 1308.038208,389.162201 
	C1291.023071,346.900787 1273.979492,304.650818 1257.055664,262.352905 
	C1255.892090,259.445160 1254.445801,258.257690 1251.255371,258.366516 
	C1244.266846,258.604889 1237.234009,258.859100 1230.279419,258.324829 
	C1225.486328,257.956635 1223.662476,259.872772 1222.088623,264.017670 
	C1207.921631,301.328705 1193.546997,338.560944 1179.255981,375.825012 
	C1177.013550,381.672150 1174.885010,387.562988 1172.492188,394.002777 
	C1182.727051,394.002777 1192.204224,393.849701 1201.671265,394.088898 
	C1204.826538,394.168640 1205.989624,392.859192 1206.896851,390.174622 
	C1209.397705,382.774323 1212.324463,375.513733 1214.676758,368.069580 
	C1215.680420,364.893250 1217.270630,364.068024 1220.400391,364.102814 
	C1234.058350,364.254639 1247.720825,364.282532 1261.377563,364.084991 
	C1264.648071,364.037659 1266.043945,365.277863 1267.096313,368.153412 
	C1269.543579,374.840698 1272.296143,381.416260 1274.919189,388.690033 
	C1275.217407,389.243103 1275.515503,389.796204 1275.806396,390.736450 
	C1275.806396,390.736450 1276.030518,391.052246 1275.996582,391.688141 
	C1276.332031,392.462189 1276.667480,393.236267 1277.584839,394.611603 
	C1284.323120,394.745087 1291.062012,394.998138 1297.799438,394.964600 
	C1301.511230,394.946136 1305.220459,394.446075 1309.435059,393.800385 
M1095.977173,285.021240 
	C1095.977173,285.021240 1096.016724,284.964050 1096.943237,285.084534 
	C1119.839478,285.084534 1142.735718,285.084534 1165.572876,285.084534 
	C1165.572876,275.763123 1165.572876,267.215454 1165.572876,258.536987 
	C1164.376343,258.407166 1163.568848,258.243286 1162.761353,258.242950 
	C1131.291382,258.229889 1099.821045,258.315033 1068.352051,258.138611 
	C1063.820068,258.113220 1064.216431,260.593109 1064.217896,263.517334 
	C1064.240601,305.310730 1064.223145,347.104156 1064.270020,388.897522 
	C1064.271973,390.654510 1064.805908,392.410919 1065.696655,394.707397 
	C1066.515991,394.808685 1067.335449,394.998138 1068.154785,394.998505 
	C1099.815918,395.012970 1131.476929,395.018890 1163.138062,394.977966 
	C1164.407837,394.976318 1165.677246,394.509827 1167.688477,393.953918 
	C1167.688477,385.154053 1167.688477,376.354156 1167.688477,366.999420 
	C1143.668701,366.999420 1119.800903,366.999420 1095.426758,366.999420 
	C1095.426758,358.667664 1095.423462,350.884979 1095.427734,343.102325 
	C1095.431396,336.485748 1095.435303,336.468445 1101.843628,336.466217 
	C1119.968506,336.459930 1138.093628,336.516327 1156.217529,336.391876 
	C1157.845825,336.380707 1161.077393,338.072693 1160.813110,333.006714 
	C1160.775024,326.027985 1160.736938,319.049225 1160.898560,311.300262 
	C1159.270508,310.705139 1157.645752,309.602844 1156.013916,309.592438 
	C1137.442871,309.473877 1118.870850,309.527222 1100.299072,309.519012 
	C1098.008911,309.518005 1095.378174,309.958893 1095.460449,306.313538 
	C1095.621216,299.204468 1095.765869,292.095001 1095.977173,285.021240 
M718.580017,378.495300 
	C718.580017,365.557251 718.580017,352.619202 718.580017,339.808624 
	C730.469238,337.877563 737.966553,340.456146 744.133911,349.247162 
	C753.694092,362.874329 762.823853,376.802948 772.230896,390.538818 
	C773.176819,391.920105 774.752991,393.815308 776.074097,393.845642 
	C787.474670,394.107727 798.883911,393.996429 811.529785,393.996429 
	C797.047241,373.772369 788.145813,351.054749 768.975830,335.212769 
	C771.269958,334.396362 773.153809,333.757660 775.015076,333.058624 
	C791.064697,327.030853 800.267334,312.262299 798.807007,294.897278 
	C797.213135,275.942719 786.817139,263.653534 769.191772,260.312958 
	C764.471985,259.418396 759.604492,258.988525 754.797180,258.924744 
	C733.975281,258.648438 713.150574,258.578766 692.326660,258.464783 
	C690.918274,258.457062 689.508484,258.703552 688.142090,258.827942 
	C688.142090,304.081482 688.142090,348.825958 688.142090,393.699615 
	C698.342285,393.699615 708.235535,393.699615 718.579590,393.699615 
	C718.579590,388.765137 718.579590,384.128967 718.580017,378.495300 
M1469.444824,199.176682 
	C1472.371826,199.176682 1475.298828,199.176682 1478.224365,199.176682 
	C1478.224365,196.076477 1478.224365,193.655792 1478.224365,190.612335 
	C1176.064575,190.612335 874.194214,190.612335 572.326172,190.612335 
	C572.326172,193.011337 572.326172,195.559479 572.326172,199.176682 
	C871.266785,199.176682 1169.864380,199.176682 1469.444824,199.176682 
M849.500061,258.442963 
	C836.752319,258.442963 824.004517,258.442963 811.242126,258.442963 
	C811.242126,267.645020 811.242126,276.081299 811.242126,285.179688 
	C824.177368,285.179688 836.875000,285.179688 850.003296,285.179688 
	C850.003296,321.754089 850.003296,357.665253 850.003296,393.697296 
	C860.356689,393.697296 870.252136,393.697296 880.791931,393.697296 
	C880.791931,357.367188 880.791931,321.340576 880.791931,284.874451 
	C893.856934,284.874451 906.281189,284.874451 918.775452,284.874451 
	C918.775452,275.881897 918.775452,267.343719 918.775452,258.443359 
	C895.766724,258.443359 873.133423,258.443359 849.500061,258.442963 
M642.500061,367.404083 
	C630.869080,367.404083 619.238098,367.404083 607.019653,367.404083 
	C607.019653,331.395752 607.019653,295.835022 607.019653,260.132324 
	C596.521851,260.132324 586.618958,260.132324 576.475464,260.132324 
	C576.475464,304.811981 576.475464,349.198456 576.475464,393.762939 
	C608.702942,393.762939 640.612915,393.762939 672.702271,393.762939 
	C672.702271,384.961792 672.702271,376.410400 672.702271,367.404480 
	C662.768250,367.404480 653.134216,367.404480 642.500061,367.404083 
M734.391663,118.915367 
	C742.472351,111.688301 746.000793,102.502930 746.007080,91.820999 
	C746.018311,72.822266 746.014771,53.823517 746.000305,34.824791 
	C745.999207,33.382442 745.862732,31.940203 745.792603,30.565151 
	C738.717468,30.565151 732.010376,30.565151 725.150757,30.565151 
	C725.150757,32.146217 725.153748,33.307873 725.150269,34.469509 
	C725.092102,53.632183 725.220581,72.798195 724.879944,91.955856 
	C724.747925,99.381882 723.208313,106.732498 715.915283,110.875931 
	C701.281372,119.189941 684.737183,110.750900 684.029968,94.085022 
	C683.204224,74.623329 683.408325,55.117882 683.171021,35.631351 
	C683.149780,33.885952 683.168152,32.140064 683.168152,30.337223 
	C675.969971,30.337223 669.522827,30.337223 662.954468,30.337223 
	C662.788452,31.129015 662.539307,31.763332 662.539062,32.397728 
	C662.532349,52.728115 662.287537,73.063332 662.661987,93.387077 
	C662.886536,105.575394 667.978699,115.592270 678.676819,122.182533 
	C694.494629,131.926666 718.951843,130.656311 734.391663,118.915367 
M792.437988,56.974110 
	C789.498596,48.046455 786.559204,39.118801 783.678711,30.369850 
	C775.866821,30.369850 768.618042,30.369850 761.420593,30.369850 
	C761.338074,30.762289 761.231140,30.951906 761.279724,31.084503 
	C772.688782,62.224621 784.083740,93.370033 795.632080,124.458458 
	C796.036743,125.547752 797.948059,126.704369 799.195435,126.748444 
	C805.673584,126.977333 812.164185,126.854988 819.004517,126.854988 
	C830.818176,94.787201 842.610352,62.777641 854.625549,30.162807 
	C848.371704,30.162807 842.912964,30.329628 837.471558,30.095181 
	C834.581604,29.970661 833.513489,31.054193 832.659546,33.735298 
	C828.232849,47.633816 823.570801,61.457668 818.957397,75.296410 
	C815.666565,85.167824 812.323181,95.021690 808.657898,105.909210 
	C803.126587,89.111954 797.954590,73.405853 792.437988,56.974110 
M871.830750,103.499908 
	C871.830750,111.121651 871.830750,118.743393 871.830750,126.511169 
	C876.494446,126.511169 880.707092,126.511169 885.401978,126.511169 
	C885.401978,111.936333 885.401978,97.695595 885.401978,83.165947 
	C891.531921,83.165947 897.176208,83.136086 902.820129,83.171837 
	C916.843933,83.260674 920.735535,86.656143 922.760864,100.553970 
	C922.952454,101.868958 922.871704,103.225792 923.090149,104.534370 
	C924.332642,111.979370 925.627747,119.415604 926.848389,126.525208 
	C932.228943,126.525208 936.624146,126.525208 940.876587,126.525208 
	C939.246399,117.937820 937.399780,109.687027 936.169495,101.345329 
	C934.718628,91.507523 934.447144,81.229828 921.693054,77.667305 
	C934.431213,72.785736 939.731018,64.508957 938.976013,51.803982 
	C938.370544,41.616199 931.948059,33.524471 919.890991,32.025211 
	C904.163025,30.069471 888.175415,30.200871 871.830750,29.411577 
	C871.830750,54.602352 871.830750,78.551140 871.830750,103.499908 
M596.454834,46.566528 
	C596.967896,48.069309 597.921997,49.570309 597.928040,51.075134 
	C598.022278,74.394165 597.993591,97.713692 597.993408,121.033104 
	C597.993347,122.818123 597.993408,124.603134 597.993408,126.579651 
	C605.195923,126.579651 611.921082,126.579651 619.132568,126.579651 
	C619.132568,99.760544 619.132568,73.206177 619.132568,46.158424 
	C628.859985,46.158424 638.103210,46.158424 647.141479,46.158424 
	C647.141479,40.561684 647.141479,35.474983 647.141479,30.452419 
	C621.000427,30.452419 595.256042,30.452419 569.370361,30.452419 
	C569.370361,35.843021 569.370361,40.926811 569.370361,46.545937 
	C578.203552,46.545937 586.832520,46.545937 596.454834,46.566528 
M1472.845337,59.500053 
	C1472.845337,50.027523 1472.845337,40.554993 1472.845337,30.771671 
	C1468.483276,30.771671 1464.407959,30.771671 1459.771484,30.771671 
	C1459.771484,43.137615 1459.771484,55.294155 1459.771484,68.402878 
	C1451.824341,54.557518 1426.620483,54.475723 1416.611328,68.044937 
	C1409.099731,78.228127 1407.873535,89.713593 1409.499023,101.747231 
	C1410.470947,108.942917 1412.884277,115.680923 1417.942627,121.100464 
	C1429.157471,133.116394 1447.702393,131.643402 1459.843628,117.626060 
	C1459.984131,120.768028 1460.113525,123.663315 1460.249512,126.705673 
	C1464.796997,126.705673 1469.009766,126.705673 1472.845337,126.705673 
	C1472.845337,104.432327 1472.845337,82.466194 1472.845337,59.500053 
M1005.488586,91.510468 
	C1005.488586,103.127892 1005.488586,114.745323 1005.488586,126.540512 
	C1010.030151,126.540512 1014.070740,126.540512 1018.511414,126.540512 
	C1018.511414,112.105522 1018.534729,97.979065 1018.490479,83.852821 
	C1018.482178,81.196365 1018.336914,78.525192 1018.027222,75.887520 
	C1016.825073,65.645622 1010.105469,59.091232 999.849854,57.825024 
	C989.932678,56.600586 981.196594,58.803425 973.572021,67.674942 
	C973.572021,54.367123 973.572021,42.496872 973.572021,30.450230 
	C968.974365,30.450230 964.939392,30.450230 960.769531,30.450230 
	C960.769531,62.671856 960.769531,94.571800 960.769531,126.663361 
	C965.003723,126.663361 968.944031,126.663361 973.527466,126.663361 
	C973.527466,124.747650 973.528015,122.961655 973.527466,121.175659 
	C973.524170,110.185966 973.389038,99.193810 973.594727,88.208023 
	C973.658936,84.776772 974.197876,81.211594 975.297974,77.972038 
	C977.658630,71.020409 985.707886,66.715607 993.375854,67.803421 
	C1000.694702,68.841682 1004.280273,72.972443 1005.103516,81.548752 
	C1005.389038,84.522789 1005.368225,87.526230 1005.488586,91.510468 
M1314.174072,98.499969 
	C1314.125122,91.671135 1314.254028,84.835297 1313.985474,78.015106 
	C1313.585938,67.864990 1308.545654,61.532455 1298.783691,58.939220 
	C1290.925171,56.851635 1282.950195,56.781246 1275.123535,59.124111 
	C1266.330200,61.756420 1261.803955,67.975601 1261.655518,77.304596 
	C1265.936279,77.304596 1270.215820,77.304596 1274.472412,77.304596 
	C1277.277954,68.574791 1283.732178,65.130905 1292.721069,67.504082 
	C1299.679321,69.341125 1302.304565,75.104118 1300.509277,84.992271 
	C1296.754272,84.992271 1292.943604,84.917267 1289.136841,85.008026 
	C1281.414917,85.192123 1273.873535,86.254555 1267.146606,90.433998 
	C1260.053833,94.840706 1255.999268,103.794067 1257.310181,111.897385 
	C1258.738281,120.725311 1264.380371,125.662872 1272.646118,127.589371 
	C1276.454956,128.477112 1280.550171,128.483841 1284.497681,128.352661 
	C1291.326904,128.125748 1296.405762,124.268730 1300.307373,119.286720 
	C1303.791992,121.135811 1299.654663,126.553391 1304.830444,126.813629 
	C1307.941162,126.970039 1311.066162,126.842377 1314.174072,126.842377 
	C1314.174072,117.396393 1314.174072,108.448143 1314.174072,98.499969 
M1077.499023,95.519669 
	C1083.452393,95.519669 1089.405762,95.519669 1096.054321,95.519669 
	C1095.750854,90.702438 1095.712769,86.417976 1095.172119,82.197899 
	C1093.472290,68.928551 1085.416260,60.297432 1072.941895,58.084759 
	C1058.459106,55.515842 1046.103271,60.501148 1040.076172,72.112450 
	C1033.075684,85.598915 1033.148315,99.604378 1038.954590,113.502266 
	C1042.185913,121.236893 1048.385620,125.887833 1056.457153,127.732208 
	C1064.407593,129.548920 1072.374268,129.101410 1079.950317,125.950287 
	C1088.810059,122.265160 1093.609741,115.401176 1094.959106,105.474075 
	C1092.487061,105.474075 1090.365845,105.474075 1088.244751,105.474075 
	C1085.972778,105.474075 1083.700806,105.474075 1081.596802,105.474075 
	C1078.594727,116.708885 1071.734985,121.107079 1061.530762,118.834763 
	C1052.561279,116.837410 1046.987671,106.524818 1049.246948,95.519615 
	C1058.269897,95.519615 1067.384521,95.519615 1077.499023,95.519669 
M1160.844727,101.500565 
	C1161.143799,94.369713 1160.709839,87.110825 1161.927368,80.140381 
	C1163.453491,71.402458 1171.627808,66.535378 1180.696167,67.697876 
	C1189.115112,68.777130 1193.075684,73.652390 1193.135254,83.354675 
	C1193.215942,96.509674 1193.148315,109.665550 1193.172729,122.820992 
	C1193.175171,124.084488 1193.378662,125.347603 1193.490967,126.636673 
	C1197.791382,126.636673 1201.728394,126.636673 1205.868042,126.636673 
	C1205.868042,109.321426 1206.369751,92.206062 1205.649536,75.142258 
	C1205.306274,67.010056 1199.432983,61.697529 1191.675659,59.254868 
	C1179.951416,55.563099 1169.442627,57.329197 1160.802734,67.861046 
	C1160.587524,64.607117 1160.429810,62.221466 1160.266724,59.754093 
	C1155.998657,59.754093 1152.076050,59.754093 1148.209473,59.754093 
	C1148.209473,82.229271 1148.209473,104.430283 1148.209473,126.600090 
	C1152.536377,126.600090 1156.466187,126.600090 1160.844727,126.600090 
	C1160.844727,118.397339 1160.844727,110.448822 1160.844727,101.500565 
M1386.280762,64.204391 
	C1380.338135,59.205254 1373.339600,57.615723 1365.788452,57.990986 
	C1358.159424,58.370125 1352.244385,62.181953 1346.754761,69.028275 
	C1346.754761,65.023689 1346.754761,62.461227 1346.754761,60.108498 
	C1342.397095,60.108498 1338.464600,60.108498 1334.381836,60.108498 
	C1334.381836,82.454323 1334.381836,104.517311 1334.381836,126.764595 
	C1338.704224,126.764595 1342.774902,126.764595 1347.169556,126.764595 
	C1347.169556,117.065506 1347.072021,107.607544 1347.206299,98.152878 
	C1347.286377,92.510612 1347.264404,86.802071 1348.116821,81.250526 
	C1349.456909,72.521187 1357.378418,67.229462 1366.915161,68.002167 
	C1375.000000,68.657227 1379.485840,74.004105 1379.813477,83.423584 
	C1379.877197,85.253532 1379.827759,87.087456 1379.827881,88.919548 
	C1379.828369,101.510086 1379.828003,114.100624 1379.828003,126.739746 
	C1384.414062,126.739746 1388.484375,126.739746 1392.823120,126.739746 
	C1392.823120,110.665321 1392.955811,94.873764 1392.750000,79.086624 
	C1392.679443,73.667664 1390.903931,68.618492 1386.280762,64.204391 
M1235.432007,126.842270 
	C1236.884033,126.771538 1238.335938,126.700806 1239.787109,126.630104 
	C1239.787109,94.333656 1239.787109,62.339859 1239.787109,30.423813 
	C1235.456909,30.423813 1231.528687,30.423813 1227.396973,30.423813 
	C1227.396973,62.583275 1227.396973,94.454056 1227.396973,126.842918 
	C1229.914429,126.842918 1232.201172,126.842918 1235.432007,126.842270 
M1126.003662,100.500000 
	C1126.003662,86.927589 1126.003662,73.355179 1126.003662,59.800537 
	C1121.324219,59.800537 1117.260620,59.800537 1113.389282,59.800537 
	C1113.389282,82.336456 1113.389282,104.532692 1113.389282,126.589798 
	C1117.720337,126.589798 1121.657471,126.589798 1126.003662,126.589798 
	C1126.003662,118.060989 1126.003662,109.780495 1126.003662,100.500000 
M1122.427002,33.810524 
	C1119.009033,33.810524 1115.590942,33.810524 1112.085449,33.810524 
	C1112.085449,38.680370 1112.085449,43.043293 1112.085449,47.477753 
	C1117.196289,47.477753 1122.023804,47.477753 1127.008545,47.477753 
	C1127.008545,43.795784 1126.806274,40.480423 1127.068115,37.202122 
	C1127.307129,34.211071 1126.075073,33.383354 1122.427002,33.810524 
z"/>
<path fill="#0494FF" opacity="1.000000" stroke="none" 
	d="
M227.750000,0.999996 
	C286.151337,102.480865 344.302643,203.961746 402.924927,306.264526 
	C391.373291,305.301422 380.981110,304.246826 370.563568,303.600159 
	C332.336304,301.227325 294.325775,303.078033 256.718689,310.551331 
	C233.244064,315.216217 209.999527,321.106140 186.445038,325.279694 
	C168.965195,328.376923 151.152954,329.598236 132.564835,331.762726 
	C133.384720,329.500153 133.614304,328.403473 134.142853,327.477448 
	C142.148361,313.451447 150.121262,299.405579 158.318542,285.492004 
	C159.355591,283.731781 161.515472,281.655212 163.327942,281.476318 
	C190.412735,278.803650 216.742874,272.378601 243.135422,266.126648 
	C267.316650,260.398529 291.933563,257.475525 316.731262,256.057739 
	C317.698792,256.002411 318.663757,255.902313 320.503723,255.751404 
	C289.530151,201.833099 258.825745,148.383347 227.705719,94.210098 
	C176.307861,183.918488 125.368279,272.827026 73.941231,362.586334 
	C80.370323,363.101959 85.907547,363.686523 91.460136,363.969391 
	C140.928162,366.489380 189.339661,360.166107 237.261658,347.877747 
	C281.133820,336.627869 325.942261,333.658630 371.084534,336.897339 
	C387.003235,338.039459 402.839661,340.315918 418.719604,342.019043 
	C422.257446,342.398499 424.616791,343.811066 426.476227,347.167450 
	C434.867218,362.313507 443.603210,377.268311 452.200806,392.300110 
	C452.831909,393.403534 453.351166,394.570831 454.345154,396.550079 
	C449.192383,395.454041 444.854126,394.557617 440.527802,393.606964 
	C387.658600,381.989563 334.329315,378.853516 280.763306,387.036896 
	C255.337051,390.921326 230.266891,397.153992 205.052979,402.407135 
	C159.865845,411.821533 114.329323,413.802063 68.433250,409.258911 
	C45.863018,407.024689 23.645220,403.028351 1.388281,397.022736 
	C1.000000,396.555542 1.000000,396.111115 1.342366,395.264191 
	C2.638286,393.298767 3.629497,391.757416 4.540016,390.169769 
	C74.265251,268.593811 143.994324,147.020035 213.680389,25.421608 
	C218.289886,17.378286 222.567841,9.144958 227.000000,1.000002 
	C227.000000,1.000000 227.500000,1.000000 227.750000,0.999996 
z"/>
<path fill="#FFFEFF" opacity="1.000000" stroke="none" 
	d="
M226.531342,1.000002 
	C222.567841,9.144958 218.289886,17.378286 213.680389,25.421608 
	C143.994324,147.020035 74.265251,268.593811 4.540016,390.169769 
	C3.629497,391.757416 2.638286,393.298767 1.342366,394.930847 
	C1.000000,263.759399 1.000000,132.518784 1.000000,1.000000 
	C76.020668,1.000000 151.041672,1.000000 226.531342,1.000002 
z"/>
<path fill="#161616" opacity="1.000000" stroke="none" 
	d="
M1549.000000,50.545883 
	C1547.097778,54.594315 1545.610107,58.495689 1543.216797,61.726120 
	C1535.620850,71.979233 1521.600464,75.228622 1510.126953,69.772820 
	C1499.065308,64.512871 1492.805786,51.660061 1495.549805,39.841656 
	C1498.516235,27.065111 1509.348755,18.303944 1522.028442,18.425943 
	C1534.955933,18.550327 1545.624634,27.586403 1548.653076,40.841282 
	C1549.000000,44.030594 1549.000000,47.061188 1549.000000,50.545883 
M1545.398804,42.783531 
	C1543.025269,28.658249 1531.879272,20.212502 1517.992676,22.016787 
	C1506.323730,23.532919 1496.972900,35.495457 1498.132568,47.423786 
	C1499.412476,60.589062 1510.624756,69.966797 1523.962646,69.027817 
	C1536.573242,68.140022 1545.909058,57.149189 1545.398804,42.783531 
z"/>
<path fill="#050505" opacity="1.000000" stroke="none" 
	d="
M722.535339,1.000000 
	C723.000000,6.136338 723.000000,11.272676 723.000000,16.705317 
	C718.171814,16.705317 713.769409,16.705317 708.841125,16.705317 
	C708.841125,11.793210 708.841125,6.858601 708.920532,1.461996 
	C713.356873,1.000000 717.713806,1.000000 722.535339,1.000000 
z"/>
<path fill="#050505" opacity="1.000000" stroke="none" 
	d="
M699.535339,1.000000 
	C700.000000,6.120774 700.000000,11.241548 700.000000,16.683323 
	C695.233093,16.683323 690.860046,16.683323 685.992188,16.683323 
	C685.992188,11.789308 685.992188,6.862276 685.996094,1.467622 
	C690.356873,1.000000 694.713806,1.000000 699.535339,1.000000 
z"/>
<path fill="#0395FF" opacity="1.000000" stroke="none" 
	d="
M718.579834,378.994049 
	C718.579590,384.128967 718.579590,388.765137 718.579590,393.699615 
	C708.235535,393.699615 698.342285,393.699615 688.142090,393.699615 
	C688.142090,348.825958 688.142090,304.081482 688.142090,258.827942 
	C689.508484,258.703552 690.918274,258.457062 692.326660,258.464783 
	C713.150574,258.578766 733.975281,258.648438 754.797180,258.924744 
	C759.604492,258.988525 764.471985,259.418396 769.191772,260.312958 
	C786.817139,263.653534 797.213135,275.942719 798.807007,294.897278 
	C800.267334,312.262299 791.064697,327.030853 775.015076,333.058624 
	C773.153809,333.757660 771.269958,334.396362 768.975830,335.212769 
	C788.145813,351.054749 797.047241,373.772369 811.529785,393.996429 
	C798.883911,393.996429 787.474670,394.107727 776.074097,393.845642 
	C774.752991,393.815308 773.176819,391.920105 772.230896,390.538818 
	C762.823853,376.802948 753.694092,362.874329 744.133911,349.247162 
	C737.966553,340.456146 730.469238,337.877563 718.580017,339.808624 
	C718.580017,352.619202 718.580017,365.557251 718.579834,378.994049 
M719.958496,313.955719 
	C731.736206,313.702148 743.536621,313.809113 755.283691,313.068787 
	C763.164734,312.572052 766.966003,307.702271 767.150818,299.798004 
	C767.335449,291.901337 763.741516,286.319458 756.078247,285.841248 
	C743.738770,285.071259 731.316162,285.634521 719.091553,285.634521 
	C719.091553,294.931641 719.091553,304.307465 719.958496,313.955719 
z"/>
<path fill="#0394FF" opacity="1.000000" stroke="none" 
	d="
M1020.090454,266.920654 
	C1029.092773,272.426605 1035.461182,280.347412 1039.061523,290.033997 
	C1048.657593,315.851624 1049.388672,341.662354 1037.046631,366.953583 
	C1031.117920,379.103027 1021.408997,387.055115 1008.508484,391.014465 
	C1004.633972,392.203613 1000.634033,392.984039 995.977905,393.557007 
	C976.638428,393.129456 958.010376,392.929596 939.388062,393.173370 
	C934.294128,393.240051 932.905090,391.634644 932.927490,386.631500 
	C933.108948,346.205261 933.028503,305.777832 933.028015,265.350769 
	C933.028015,263.730377 933.028076,262.109985 933.028076,260.848206 
	C935.131775,259.958374 936.598206,259.338135 938.064636,258.717834 
	C938.480408,258.684143 938.896118,258.650452 939.854919,258.977417 
	C942.286255,259.132111 944.174561,258.926178 946.062866,258.720215 
	C959.397888,258.739136 972.732849,258.758026 986.811401,259.129944 
	C990.368164,259.377136 993.181396,259.271301 995.994690,259.165405 
	C997.050964,259.250549 998.107300,259.335693 999.707458,259.852692 
	C1003.258667,260.779083 1006.265930,261.273590 1009.273254,261.768066 
	C1009.273254,261.768066 1009.671021,261.814758 1010.028076,262.155457 
	C1010.965149,262.613831 1011.545227,262.731506 1012.125244,262.849182 
	C1012.125244,262.849182 1012.029419,262.990936 1012.217957,263.193542 
	C1013.005310,263.498962 1013.604065,263.601807 1014.202881,263.704681 
	C1014.202881,263.704681 1014.056946,264.005890 1014.238525,264.165985 
	C1015.015564,264.450562 1015.611084,264.575043 1016.206604,264.699554 
	C1016.206604,264.699554 1016.042786,265.002594 1016.233154,265.176605 
	C1017.645813,265.873962 1018.868103,266.397308 1020.090454,266.920654 
M1003.996521,362.607178 
	C1006.087952,359.667206 1008.997009,357.011261 1010.133667,353.739624 
	C1016.036133,336.751007 1015.940918,319.441559 1011.106750,302.254181 
	C1008.728516,293.798706 1002.876892,287.768097 994.054993,286.566406 
	C983.943726,285.188995 973.652527,285.132660 963.404785,284.500275 
	C963.404785,312.783356 963.404785,339.967651 963.404785,367.125549 
	C972.622253,367.125549 981.466064,367.566101 990.234131,366.941681 
	C994.689392,366.624390 999.008118,364.389221 1003.996521,362.607178 
z"/>
<path fill="#0495FF" opacity="1.000000" stroke="none" 
	d="
M1276.030518,391.052246 
	C1276.030518,391.052246 1275.806396,390.736450 1275.853638,390.204346 
	C1275.575562,389.127197 1275.250244,388.582184 1274.924805,388.037140 
	C1272.296143,381.416260 1269.543579,374.840698 1267.096313,368.153412 
	C1266.043945,365.277863 1264.648071,364.037659 1261.377563,364.084991 
	C1247.720825,364.282532 1234.058350,364.254639 1220.400391,364.102814 
	C1217.270630,364.068024 1215.680420,364.893250 1214.676758,368.069580 
	C1212.324463,375.513733 1209.397705,382.774323 1206.896851,390.174622 
	C1205.989624,392.859192 1204.826538,394.168640 1201.671265,394.088898 
	C1192.204224,393.849701 1182.727051,394.002777 1172.492188,394.002777 
	C1174.885010,387.562988 1177.013550,381.672150 1179.255981,375.825012 
	C1193.546997,338.560944 1207.921631,301.328705 1222.088623,264.017670 
	C1223.662476,259.872772 1225.486328,257.956635 1230.279419,258.324829 
	C1237.234009,258.859100 1244.266846,258.604889 1251.255371,258.366516 
	C1254.445801,258.257690 1255.892090,259.445160 1257.055664,262.352905 
	C1273.979492,304.650818 1291.023071,346.900787 1308.011719,389.950745 
	C1306.614380,391.489319 1305.261597,392.846161 1303.869385,392.887787 
	C1296.576050,393.105896 1289.268677,393.126678 1281.975708,392.902496 
	C1279.976929,392.841064 1278.011353,391.698639 1276.030518,391.052246 
M1235.248291,310.761871 
	C1232.124756,319.600677 1229.001099,328.439514 1225.785522,337.538879 
	C1235.827271,337.538879 1245.184692,337.538879 1255.166992,337.538879 
	C1250.204956,324.332306 1245.429321,311.621368 1240.119507,297.488831 
	C1238.242188,302.689667 1236.912842,306.372406 1235.248291,310.761871 
z"/>
<path fill="#0293FF" opacity="1.000000" stroke="none" 
	d="
M1160.698853,312.070496 
	C1160.736938,319.049225 1160.775024,326.027985 1160.352905,333.507233 
	C1157.444702,334.357697 1154.998169,334.998779 1152.548462,335.010956 
	C1135.050049,335.098022 1117.550537,335.131897 1100.052490,335.004089 
	C1095.636108,334.971832 1093.740845,336.387329 1093.984619,341.102448 
	C1094.337036,347.917084 1094.071899,354.763519 1094.074829,361.596405 
	C1094.078003,368.831665 1094.172241,368.925598 1101.267334,368.926086 
	C1121.599365,368.927521 1141.931274,368.921570 1162.263306,368.940063 
	C1164.522461,368.942108 1167.148071,368.354401 1167.075439,372.135345 
	C1166.966553,377.799530 1167.195312,383.474915 1166.908447,389.126648 
	C1166.856201,390.154022 1165.109375,391.813416 1163.997437,391.946014 
	C1158.904663,392.553284 1153.760620,392.983643 1148.633179,393.002869 
	C1122.968628,393.099060 1097.302368,392.928833 1071.639404,393.153046 
	C1066.978027,393.193756 1065.801636,391.822144 1065.822876,387.267151 
	C1065.999390,349.603821 1065.910767,311.939270 1065.944458,274.275146 
	C1065.948364,269.798828 1064.492920,263.488739 1066.800537,261.333771 
	C1069.396729,258.909302 1075.491577,259.981384 1080.066040,259.966522 
	C1106.397339,259.880890 1132.729614,259.997253 1159.060181,259.843292 
	C1162.973267,259.820404 1164.430664,260.882202 1164.158813,264.905151 
	C1163.833618,269.716278 1163.851440,274.580139 1164.149902,279.394562 
	C1164.388916,283.251709 1162.877441,284.166382 1159.250854,284.138245 
	C1139.920044,283.988068 1120.587280,284.046417 1101.255493,284.109314 
	C1099.508301,284.114990 1097.762939,284.666168 1096.016724,284.964050 
	C1096.016724,284.964050 1095.977173,285.021240 1095.553467,285.073975 
	C1094.775757,286.331390 1094.139771,287.530426 1094.115723,288.741608 
	C1094.006958,294.239288 1094.207520,299.744843 1094.028198,305.238800 
	C1093.889282,309.493134 1095.479736,311.077454 1099.892212,311.028107 
	C1117.889404,310.826935 1135.890625,310.906708 1153.889648,310.997070 
	C1156.161133,311.008484 1158.429199,311.696167 1160.698853,312.070496 
z"/>
<path fill="#080808" opacity="1.000000" stroke="none" 
	d="
M1468.953369,199.176682 
	C1169.864380,199.176682 871.266785,199.176682 572.326172,199.176682 
	C572.326172,195.559479 572.326172,193.011337 572.326172,190.612335 
	C874.194214,190.612335 1176.064575,190.612335 1478.224365,190.612335 
	C1478.224365,193.655792 1478.224365,196.076477 1478.224365,199.176682 
	C1475.298828,199.176682 1472.371826,199.176682 1468.953369,199.176682 
z"/>
<path fill="#0495FF" opacity="1.000000" stroke="none" 
	d="
M850.000122,258.443176 
	C873.133423,258.443359 895.766724,258.443359 918.775452,258.443359 
	C918.775452,267.343719 918.775452,275.881897 918.775452,284.874451 
	C906.281189,284.874451 893.856934,284.874451 880.791931,284.874451 
	C880.791931,321.340576 880.791931,357.367188 880.791931,393.697296 
	C870.252136,393.697296 860.356689,393.697296 850.003296,393.697296 
	C850.003296,357.665253 850.003296,321.754089 850.003296,285.179688 
	C836.875000,285.179688 824.177368,285.179688 811.242126,285.179688 
	C811.242126,276.081299 811.242126,267.645020 811.242126,258.442963 
	C824.004517,258.442963 836.752319,258.442963 850.000122,258.443176 
z"/>
<path fill="#0596FF" opacity="1.000000" stroke="none" 
	d="
M643.000122,367.404297 
	C653.134216,367.404480 662.768250,367.404480 672.702271,367.404480 
	C672.702271,376.410400 672.702271,384.961792 672.702271,393.762939 
	C640.612915,393.762939 608.702942,393.762939 576.475464,393.762939 
	C576.475464,349.198456 576.475464,304.811981 576.475464,260.132324 
	C586.618958,260.132324 596.521851,260.132324 607.019653,260.132324 
	C607.019653,295.835022 607.019653,331.395752 607.019653,367.404083 
	C619.238098,367.404083 630.869080,367.404083 643.000122,367.404297 
z"/>
<path fill="#060606" opacity="1.000000" stroke="none" 
	d="
M734.119507,119.148140 
	C718.951843,130.656311 694.494629,131.926666 678.676819,122.182533 
	C667.978699,115.592270 662.886536,105.575394 662.661987,93.387077 
	C662.287537,73.063332 662.532349,52.728115 662.539062,32.397728 
	C662.539307,31.763332 662.788452,31.129015 662.954468,30.337223 
	C669.522827,30.337223 675.969971,30.337223 683.168152,30.337223 
	C683.168152,32.140064 683.149780,33.885952 683.171021,35.631351 
	C683.408325,55.117882 683.204224,74.623329 684.029968,94.085022 
	C684.737183,110.750900 701.281372,119.189941 715.915283,110.875931 
	C723.208313,106.732498 724.747925,99.381882 724.879944,91.955856 
	C725.220581,72.798195 725.092102,53.632183 725.150269,34.469509 
	C725.153748,33.307873 725.150757,32.146217 725.150757,30.565151 
	C732.010376,30.565151 738.717468,30.565151 745.792603,30.565151 
	C745.862732,31.940203 745.999207,33.382442 746.000305,34.824791 
	C746.014771,53.823517 746.018311,72.822266 746.007080,91.820999 
	C746.000793,102.502930 742.472351,111.688301 734.119507,119.148140 
z"/>
<path fill="#060606" opacity="1.000000" stroke="none" 
	d="
M792.610352,57.336929 
	C797.954590,73.405853 803.126587,89.111954 808.657898,105.909210 
	C812.323181,95.021690 815.666565,85.167824 818.957397,75.296410 
	C823.570801,61.457668 828.232849,47.633816 832.659546,33.735298 
	C833.513489,31.054193 834.581604,29.970661 837.471558,30.095181 
	C842.912964,30.329628 848.371704,30.162807 854.625549,30.162807 
	C842.610352,62.777641 830.818176,94.787201 819.004517,126.854988 
	C812.164185,126.854988 805.673584,126.977333 799.195435,126.748444 
	C797.948059,126.704369 796.036743,125.547752 795.632080,124.458458 
	C784.083740,93.370033 772.688782,62.224621 761.279724,31.084503 
	C761.231140,30.951906 761.338074,30.762289 761.420593,30.369850 
	C768.618042,30.369850 775.866821,30.369850 783.678711,30.369850 
	C786.559204,39.118801 789.498596,48.046455 792.610352,57.336929 
z"/>
<path fill="#050505" opacity="1.000000" stroke="none" 
	d="
M871.830750,102.999916 
	C871.830750,78.551140 871.830750,54.602352 871.830750,29.411577 
	C888.175415,30.200871 904.163025,30.069471 919.890991,32.025211 
	C931.948059,33.524471 938.370544,41.616199 938.976013,51.803982 
	C939.731018,64.508957 934.431213,72.785736 921.693054,77.667305 
	C934.447144,81.229828 934.718628,91.507523 936.169495,101.345329 
	C937.399780,109.687027 939.246399,117.937820 940.876587,126.525208 
	C936.624146,126.525208 932.228943,126.525208 926.848389,126.525208 
	C925.627747,119.415604 924.332642,111.979370 923.090149,104.534370 
	C922.871704,103.225792 922.952454,101.868958 922.760864,100.553970 
	C920.735535,86.656143 916.843933,83.260674 902.820129,83.171837 
	C897.176208,83.136086 891.531921,83.165947 885.401978,83.165947 
	C885.401978,97.695595 885.401978,111.936333 885.401978,126.511169 
	C880.707092,126.511169 876.494446,126.511169 871.830750,126.511169 
	C871.830750,118.743393 871.830750,111.121651 871.830750,102.999916 
M885.008484,66.298904 
	C885.008484,67.904961 885.008484,69.511024 885.008484,70.968216 
	C894.325684,70.968216 903.153198,71.433189 911.907349,70.831429 
	C919.923645,70.280396 924.484131,65.005592 924.842834,57.558968 
	C925.232056,49.478947 921.576965,43.912437 913.083618,42.978138 
	C903.942139,41.972538 894.604431,42.750881 885.005188,42.750881 
	C885.005188,50.088093 885.005188,57.716396 885.008484,66.298904 
z"/>
<path fill="#040404" opacity="1.000000" stroke="none" 
	d="
M595.958191,46.556232 
	C586.832520,46.545937 578.203552,46.545937 569.370361,46.545937 
	C569.370361,40.926811 569.370361,35.843021 569.370361,30.452419 
	C595.256042,30.452419 621.000427,30.452419 647.141479,30.452419 
	C647.141479,35.474983 647.141479,40.561684 647.141479,46.158424 
	C638.103210,46.158424 628.859985,46.158424 619.132568,46.158424 
	C619.132568,73.206177 619.132568,99.760544 619.132568,126.579651 
	C611.921082,126.579651 605.195923,126.579651 597.993408,126.579651 
	C597.993408,124.603134 597.993347,122.818123 597.993408,121.033104 
	C597.993591,97.713692 598.022278,74.394165 597.928040,51.075134 
	C597.921997,49.570309 596.967896,48.069309 595.958191,46.556232 
z"/>
<path fill="#070707" opacity="1.000000" stroke="none" 
	d="
M1472.845337,60.000053 
	C1472.845337,82.466194 1472.845337,104.432327 1472.845337,126.705673 
	C1469.009766,126.705673 1464.796997,126.705673 1460.249512,126.705673 
	C1460.113525,123.663315 1459.984131,120.768028 1459.843628,117.626060 
	C1447.702393,131.643402 1429.157471,133.116394 1417.942627,121.100464 
	C1412.884277,115.680923 1410.470947,108.942917 1409.499023,101.747231 
	C1407.873535,89.713593 1409.099731,78.228127 1416.611328,68.044937 
	C1426.620483,54.475723 1451.824341,54.557518 1459.771484,68.402878 
	C1459.771484,55.294155 1459.771484,43.137615 1459.771484,30.771671 
	C1464.407959,30.771671 1468.483276,30.771671 1472.845337,30.771671 
	C1472.845337,40.554993 1472.845337,50.027523 1472.845337,60.000053 
M1448.706543,118.618225 
	C1451.368896,115.967445 1455.086792,113.783531 1456.503296,110.581612 
	C1461.499390,99.287834 1461.618286,87.642754 1456.230835,76.325401 
	C1453.038696,69.619606 1447.393921,66.677094 1440.004639,67.002884 
	C1432.715698,67.324249 1427.777954,71.083115 1425.177856,77.696381 
	C1421.722412,86.485252 1421.620728,95.563400 1423.947876,104.641220 
	C1427.128174,117.046425 1435.526367,121.962578 1448.706543,118.618225 
z"/>
<path fill="#060606" opacity="1.000000" stroke="none" 
	d="
M1005.487976,91.013351 
	C1005.368225,87.526230 1005.389038,84.522789 1005.103516,81.548752 
	C1004.280273,72.972443 1000.694702,68.841682 993.375854,67.803421 
	C985.707886,66.715607 977.658630,71.020409 975.297974,77.972038 
	C974.197876,81.211594 973.658936,84.776772 973.594727,88.208023 
	C973.389038,99.193810 973.524170,110.185966 973.527466,121.175659 
	C973.528015,122.961655 973.527466,124.747650 973.527466,126.663361 
	C968.944031,126.663361 965.003723,126.663361 960.769531,126.663361 
	C960.769531,94.571800 960.769531,62.671856 960.769531,30.450230 
	C964.939392,30.450230 968.974365,30.450230 973.572021,30.450230 
	C973.572021,42.496872 973.572021,54.367123 973.572021,67.674942 
	C981.196594,58.803425 989.932678,56.600586 999.849854,57.825024 
	C1010.105469,59.091232 1016.825073,65.645622 1018.027222,75.887520 
	C1018.336914,78.525192 1018.482178,81.196365 1018.490479,83.852821 
	C1018.534729,97.979065 1018.511414,112.105522 1018.511414,126.540512 
	C1014.070740,126.540512 1010.030151,126.540512 1005.488586,126.540512 
	C1005.488586,114.745323 1005.488586,103.127892 1005.487976,91.013351 
z"/>
<path fill="#070707" opacity="1.000000" stroke="none" 
	d="
M1314.174072,98.999924 
	C1314.174072,108.448143 1314.174072,117.396393 1314.174072,126.842377 
	C1311.066162,126.842377 1307.941162,126.970039 1304.830444,126.813629 
	C1299.654663,126.553391 1303.791992,121.135811 1300.307373,119.286720 
	C1296.405762,124.268730 1291.326904,128.125748 1284.497681,128.352661 
	C1280.550171,128.483841 1276.454956,128.477112 1272.646118,127.589371 
	C1264.380371,125.662872 1258.738281,120.725311 1257.310181,111.897385 
	C1255.999268,103.794067 1260.053833,94.840706 1267.146606,90.433998 
	C1273.873535,86.254555 1281.414917,85.192123 1289.136841,85.008026 
	C1292.943604,84.917267 1296.754272,84.992271 1300.509277,84.992271 
	C1302.304565,75.104118 1299.679321,69.341125 1292.721069,67.504082 
	C1283.732178,65.130905 1277.277954,68.574791 1274.472412,77.304596 
	C1270.215820,77.304596 1265.936279,77.304596 1261.655518,77.304596 
	C1261.803955,67.975601 1266.330200,61.756420 1275.123535,59.124111 
	C1282.950195,56.781246 1290.925171,56.851635 1298.783691,58.939220 
	C1308.545654,61.532455 1313.585938,67.864990 1313.985474,78.015106 
	C1314.254028,84.835297 1314.125122,91.671135 1314.174072,98.999924 
M1270.920898,107.442719 
	C1271.700562,113.764694 1274.498657,117.368706 1279.711792,118.765373 
	C1285.953613,120.437637 1293.501953,118.191315 1296.800781,113.320000 
	C1300.661865,107.618225 1301.696533,101.234016 1300.812988,94.185089 
	C1296.015503,94.185089 1291.522217,93.908424 1287.074829,94.241447 
	C1277.160156,94.983871 1272.067261,99.035728 1270.920898,107.442719 
z"/>
<path fill="#080808" opacity="1.000000" stroke="none" 
	d="
M1076.999023,95.519638 
	C1067.384521,95.519615 1058.269897,95.519615 1049.246948,95.519615 
	C1046.987671,106.524818 1052.561279,116.837410 1061.530762,118.834763 
	C1071.734985,121.107079 1078.594727,116.708885 1081.596802,105.474075 
	C1083.700806,105.474075 1085.972778,105.474075 1088.244751,105.474075 
	C1090.365845,105.474075 1092.487061,105.474075 1094.959106,105.474075 
	C1093.609741,115.401176 1088.810059,122.265160 1079.950317,125.950287 
	C1072.374268,129.101410 1064.407593,129.548920 1056.457153,127.732208 
	C1048.385620,125.887833 1042.185913,121.236893 1038.954590,113.502266 
	C1033.148315,99.604378 1033.075684,85.598915 1040.076172,72.112450 
	C1046.103271,60.501148 1058.459106,55.515842 1072.941895,58.084759 
	C1085.416260,60.297432 1093.472290,68.928551 1095.172119,82.197899 
	C1095.712769,86.417976 1095.750854,90.702438 1096.054321,95.519669 
	C1089.405762,95.519669 1083.452393,95.519669 1076.999023,95.519638 
M1055.642578,86.503792 
	C1064.390259,86.503792 1073.138062,86.503792 1081.850342,86.503792 
	C1082.233765,73.542191 1075.519653,66.399506 1064.157837,67.003700 
	C1054.897461,67.496162 1048.099854,76.235504 1049.280518,86.504715 
	C1051.054199,86.504715 1052.871216,86.504715 1055.642578,86.503792 
z"/>
<path fill="#070707" opacity="1.000000" stroke="none" 
	d="
M1160.844727,102.000435 
	C1160.844727,110.448822 1160.844727,118.397339 1160.844727,126.600090 
	C1156.466187,126.600090 1152.536377,126.600090 1148.209473,126.600090 
	C1148.209473,104.430283 1148.209473,82.229271 1148.209473,59.754093 
	C1152.076050,59.754093 1155.998657,59.754093 1160.266724,59.754093 
	C1160.429810,62.221466 1160.587524,64.607117 1160.802734,67.861046 
	C1169.442627,57.329197 1179.951416,55.563099 1191.675659,59.254868 
	C1199.432983,61.697529 1205.306274,67.010056 1205.649536,75.142258 
	C1206.369751,92.206062 1205.868042,109.321426 1205.868042,126.636673 
	C1201.728394,126.636673 1197.791382,126.636673 1193.490967,126.636673 
	C1193.378662,125.347603 1193.175171,124.084488 1193.172729,122.820992 
	C1193.148315,109.665550 1193.215942,96.509674 1193.135254,83.354675 
	C1193.075684,73.652390 1189.115112,68.777130 1180.696167,67.697876 
	C1171.627808,66.535378 1163.453491,71.402458 1161.927368,80.140381 
	C1160.709839,87.110825 1161.143799,94.369713 1160.844727,102.000435 
z"/>
<path fill="#060606" opacity="1.000000" stroke="none" 
	d="
M1386.544800,64.449883 
	C1390.903931,68.618492 1392.679443,73.667664 1392.750000,79.086624 
	C1392.955811,94.873764 1392.823120,110.665321 1392.823120,126.739746 
	C1388.484375,126.739746 1384.414062,126.739746 1379.828003,126.739746 
	C1379.828003,114.100624 1379.828369,101.510086 1379.827881,88.919548 
	C1379.827759,87.087456 1379.877197,85.253532 1379.813477,83.423584 
	C1379.485840,74.004105 1375.000000,68.657227 1366.915161,68.002167 
	C1357.378418,67.229462 1349.456909,72.521187 1348.116821,81.250526 
	C1347.264404,86.802071 1347.286377,92.510612 1347.206299,98.152878 
	C1347.072021,107.607544 1347.169556,117.065506 1347.169556,126.764595 
	C1342.774902,126.764595 1338.704224,126.764595 1334.381836,126.764595 
	C1334.381836,104.517311 1334.381836,82.454323 1334.381836,60.108498 
	C1338.464600,60.108498 1342.397095,60.108498 1346.754761,60.108498 
	C1346.754761,62.461227 1346.754761,65.023689 1346.754761,69.028275 
	C1352.244385,62.181953 1358.159424,58.370125 1365.788452,57.990986 
	C1373.339600,57.615723 1380.338135,59.205254 1386.544800,64.449883 
z"/>
<path fill="#070707" opacity="1.000000" stroke="none" 
	d="
M1234.959961,126.842590 
	C1232.201172,126.842918 1229.914429,126.842918 1227.396973,126.842918 
	C1227.396973,94.454056 1227.396973,62.583275 1227.396973,30.423813 
	C1231.528687,30.423813 1235.456909,30.423813 1239.787109,30.423813 
	C1239.787109,62.339859 1239.787109,94.333656 1239.787109,126.630104 
	C1238.335938,126.700806 1236.884033,126.771538 1234.959961,126.842590 
z"/>
<path fill="#32B9FF" opacity="1.000000" stroke="none" 
	d="
M1096.479980,285.024292 
	C1097.762939,284.666168 1099.508301,284.114990 1101.255493,284.109314 
	C1120.587280,284.046417 1139.920044,283.988068 1159.250854,284.138245 
	C1162.877441,284.166382 1164.388916,283.251709 1164.149902,279.394562 
	C1163.851440,274.580139 1163.833618,269.716278 1164.158813,264.905151 
	C1164.430664,260.882202 1162.973267,259.820404 1159.060181,259.843292 
	C1132.729614,259.997253 1106.397339,259.880890 1080.066040,259.966522 
	C1075.491577,259.981384 1069.396729,258.909302 1066.800537,261.333771 
	C1064.492920,263.488739 1065.948364,269.798828 1065.944458,274.275146 
	C1065.910767,311.939270 1065.999390,349.603821 1065.822876,387.267151 
	C1065.801636,391.822144 1066.978027,393.193756 1071.639404,393.153046 
	C1097.302368,392.928833 1122.968628,393.099060 1148.633179,393.002869 
	C1153.760620,392.983643 1158.904663,392.553284 1163.997437,391.946014 
	C1165.109375,391.813416 1166.856201,390.154022 1166.908447,389.126648 
	C1167.195312,383.474915 1166.966553,377.799530 1167.075439,372.135345 
	C1167.148071,368.354401 1164.522461,368.942108 1162.263306,368.940063 
	C1141.931274,368.921570 1121.599365,368.927521 1101.267334,368.926086 
	C1094.172241,368.925598 1094.078003,368.831665 1094.074829,361.596405 
	C1094.071899,354.763519 1094.337036,347.917084 1093.984619,341.102448 
	C1093.740845,336.387329 1095.636108,334.971832 1100.052490,335.004089 
	C1117.550537,335.131897 1135.050049,335.098022 1152.548462,335.010956 
	C1154.998169,334.998779 1157.444702,334.357697 1160.293579,333.967285 
	C1161.077393,338.072693 1157.845825,336.380707 1156.217529,336.391876 
	C1138.093628,336.516327 1119.968506,336.459930 1101.843628,336.466217 
	C1095.435303,336.468445 1095.431396,336.485748 1095.427734,343.102325 
	C1095.423462,350.884979 1095.426758,358.667664 1095.426758,366.999420 
	C1119.800903,366.999420 1143.668701,366.999420 1167.688477,366.999420 
	C1167.688477,376.354156 1167.688477,385.154053 1166.857422,394.035522 
	C1132.381714,394.133972 1098.736938,394.150787 1065.092163,394.167603 
	C1064.805908,392.410919 1064.271973,390.654510 1064.270020,388.897522 
	C1064.223145,347.104156 1064.240601,305.310730 1064.217896,263.517334 
	C1064.216431,260.593109 1063.820068,258.113220 1068.352051,258.138611 
	C1099.821045,258.315033 1131.291382,258.229889 1162.761353,258.242950 
	C1163.568848,258.243286 1164.376343,258.407166 1165.572876,258.536987 
	C1165.572876,267.215454 1165.572876,275.763123 1165.572876,285.084534 
	C1142.735718,285.084534 1119.839478,285.084534 1096.479980,285.024292 
z"/>
<path fill="#030303" opacity="1.000000" stroke="none" 
	d="
M1126.003662,101.000000 
	C1126.003662,109.780495 1126.003662,118.060989 1126.003662,126.589798 
	C1121.657471,126.589798 1117.720337,126.589798 1113.389282,126.589798 
	C1113.389282,104.532692 1113.389282,82.336456 1113.389282,59.800537 
	C1117.260620,59.800537 1121.324219,59.800537 1126.003662,59.800537 
	C1126.003662,73.355179 1126.003662,86.927589 1126.003662,101.000000 
z"/>
<path fill="#36C1FF" opacity="1.000000" stroke="none" 
	d="
M937.728882,258.534027 
	C936.598206,259.338135 935.131775,259.958374 933.028076,260.848206 
	C933.028076,262.109985 933.028015,263.730377 933.028015,265.350769 
	C933.028503,305.777832 933.108948,346.205261 932.927490,386.631500 
	C932.905090,391.634644 934.294128,393.240051 939.388062,393.173370 
	C958.010376,392.929596 976.638428,393.129456 995.565552,393.430298 
	C995.866821,393.698395 996.065063,393.896606 995.586914,393.932312 
	C974.438049,394.052399 953.767212,394.136749 933.096436,394.221130 
	C932.733032,392.853119 932.053833,391.485474 932.052124,390.116974 
	C931.997742,347.307648 932.007629,304.498230 932.022766,261.688843 
	C932.023132,260.724457 932.199036,259.760162 932.336487,258.350189 
	C934.176453,258.350189 935.784851,258.350189 937.728882,258.534027 
z"/>
<path fill="#060606" opacity="1.000000" stroke="none" 
	d="
M1122.915771,33.828621 
	C1126.075073,33.383354 1127.307129,34.211071 1127.068115,37.202122 
	C1126.806274,40.480423 1127.008545,43.795784 1127.008545,47.477753 
	C1122.023804,47.477753 1117.196289,47.477753 1112.085449,47.477753 
	C1112.085449,43.043293 1112.085449,38.680370 1112.085449,33.810524 
	C1115.590942,33.810524 1119.009033,33.810524 1122.915771,33.828621 
z"/>
<path fill="#32B9FF" opacity="1.000000" stroke="none" 
	d="
M1160.798706,311.685364 
	C1158.429199,311.696167 1156.161133,311.008484 1153.889648,310.997070 
	C1135.890625,310.906708 1117.889404,310.826935 1099.892212,311.028107 
	C1095.479736,311.077454 1093.889282,309.493134 1094.028198,305.238800 
	C1094.207520,299.744843 1094.006958,294.239288 1094.115723,288.741608 
	C1094.139771,287.530426 1094.775757,286.331390 1095.523560,285.056213 
	C1095.765869,292.095001 1095.621216,299.204468 1095.460449,306.313538 
	C1095.378174,309.958893 1098.008911,309.518005 1100.299072,309.519012 
	C1118.870850,309.527222 1137.442871,309.473877 1156.013916,309.592438 
	C1157.645752,309.602844 1159.270508,310.705139 1160.798706,311.685364 
z"/>
<path fill="#FFD5FF" opacity="1.000000" stroke="none" 
	d="
M1065.394409,394.437500 
	C1098.736938,394.150787 1132.381714,394.133972 1166.486572,394.188538 
	C1165.677246,394.509827 1164.407837,394.976318 1163.138062,394.977966 
	C1131.476929,395.018890 1099.815918,395.012970 1068.154785,394.998505 
	C1067.335449,394.998138 1066.515991,394.808685 1065.394409,394.437500 
z"/>
<path fill="#FFD7FF" opacity="1.000000" stroke="none" 
	d="
M933.411072,394.474365 
	C953.767212,394.136749 974.438049,394.052399 995.570007,394.071472 
	C995.438721,394.434052 994.845764,394.920563 994.253784,394.919525 
	C974.077698,394.884125 953.901733,394.802521 933.411072,394.474365 
z"/>
<path fill="#08BCFF" opacity="1.000000" stroke="none" 
	d="
M1276.013550,391.370209 
	C1278.011353,391.698639 1279.976929,392.841064 1281.975708,392.902496 
	C1289.268677,393.126678 1296.576050,393.105896 1303.869385,392.887787 
	C1305.261597,392.846161 1306.614380,391.489319 1308.035278,390.321442 
	C1308.535156,391.202515 1308.985107,392.501465 1308.724121,393.920349 
	C1297.676392,394.030304 1287.339722,394.020294 1277.002930,394.010315 
	C1276.667480,393.236267 1276.332031,392.462189 1276.013550,391.370209 
z"/>
<path fill="#FFD5FF" opacity="1.000000" stroke="none" 
	d="
M1277.293945,394.310974 
	C1287.339722,394.020294 1297.676392,394.030304 1308.472046,394.101685 
	C1305.220459,394.446075 1301.511230,394.946136 1297.799438,394.964600 
	C1291.062012,394.998138 1284.323120,394.745087 1277.293945,394.310974 
z"/>
<path fill="#36C1FF" opacity="1.000000" stroke="none" 
	d="
M995.615417,259.055847 
	C993.181396,259.271301 990.368164,259.377136 987.274414,259.209930 
	C989.741333,258.939972 992.488770,258.943115 995.615417,259.055847 
z"/>
<path fill="#36C1FF" opacity="1.000000" stroke="none" 
	d="
M1009.011353,261.504211 
	C1006.265930,261.273590 1003.258667,260.779083 1000.078186,259.997101 
	C1002.853210,260.219879 1005.801331,260.730103 1009.011353,261.504211 
z"/>
<path fill="#36C1FF" opacity="1.000000" stroke="none" 
	d="
M945.760071,258.540955 
	C944.174561,258.926178 942.286255,259.132111 940.164612,259.028381 
	C941.773254,258.599701 943.615295,258.480713 945.760071,258.540955 
z"/>
<path fill="#36C1FF" opacity="1.000000" stroke="none" 
	d="
M1019.924133,266.635712 
	C1018.868103,266.397308 1017.645813,265.873962 1016.319458,265.025879 
	C1017.396240,265.251038 1018.577026,265.800903 1019.924133,266.635712 
z"/>
<path fill="#36C1FF" opacity="1.000000" stroke="none" 
	d="
M1014.026184,263.457336 
	C1013.604065,263.601807 1013.005310,263.498962 1012.251953,263.115051 
	C1012.681458,262.959320 1013.265503,263.084656 1014.026184,263.457336 
z"/>
<path fill="#36C1FF" opacity="1.000000" stroke="none" 
	d="
M1016.037964,264.460480 
	C1015.611084,264.575043 1015.015564,264.450562 1014.317566,264.017181 
	C1014.766479,263.879333 1015.317932,264.050354 1016.037964,264.460480 
z"/>
<path fill="#36C1FF" opacity="1.000000" stroke="none" 
	d="
M1011.945007,262.603271 
	C1011.545227,262.731506 1010.965149,262.613831 1010.207397,262.244690 
	C1010.607971,262.114624 1011.186401,262.235992 1011.945007,262.603271 
z"/>
<path fill="#08BCFF" opacity="1.000000" stroke="none" 
	d="
M1274.921997,388.363586 
	C1275.250244,388.582184 1275.575562,389.127197 1275.857300,390.010742 
	C1275.515503,389.796204 1275.217407,389.243103 1274.921997,388.363586 
z"/>
<path fill="#F9F9F9" opacity="1.000000" stroke="none" 
	d="
M1545.441528,43.237236 
	C1545.909058,57.149189 1536.573242,68.140022 1523.962646,69.027817 
	C1510.624756,69.966797 1499.412476,60.589062 1498.132568,47.423786 
	C1496.972900,35.495457 1506.323730,23.532919 1517.992676,22.016787 
	C1531.879272,20.212502 1543.025269,28.658249 1545.441528,43.237236 
M1512.556763,58.722454 
	C1513.856934,59.115269 1515.157104,59.508087 1517.072998,60.086903 
	C1517.072998,54.992149 1517.072998,50.897488 1517.072998,46.845844 
	C1526.529175,46.158730 1526.526733,46.159206 1528.296753,55.092266 
	C1528.392944,55.578747 1528.703735,56.044193 1528.712402,56.523117 
	C1528.780273,60.250061 1530.794312,60.427929 1533.981445,59.279598 
	C1532.717651,54.149742 1531.488159,49.159389 1530.176758,43.836090 
	C1532.789917,42.483997 1534.359863,38.889477 1532.728149,35.650032 
	C1531.497314,33.206627 1528.098267,31.037485 1525.290283,30.403931 
	C1521.371948,29.519844 1517.105103,30.181179 1512.454712,30.181179 
	C1512.454712,39.632092 1512.454712,48.740948 1512.556763,58.722454 
z"/>
<path fill="#FBFAFF" opacity="1.000000" stroke="none" 
	d="
M719.525024,313.819489 
	C719.091553,304.307465 719.091553,294.931641 719.091553,285.634521 
	C731.316162,285.634521 743.738770,285.071259 756.078247,285.841248 
	C763.741516,286.319458 767.335449,291.901337 767.150818,299.798004 
	C766.966003,307.702271 763.164734,312.572052 755.283691,313.068787 
	C743.536621,313.809113 731.736206,313.702148 719.525024,313.819489 
z"/>
<path fill="#FEFCFF" opacity="1.000000" stroke="none" 
	d="
M1003.692505,362.814117 
	C999.008118,364.389221 994.689392,366.624390 990.234131,366.941681 
	C981.466064,367.566101 972.622253,367.125549 963.404785,367.125549 
	C963.404785,339.967651 963.404785,312.783356 963.404785,284.500275 
	C973.652527,285.132660 983.943726,285.188995 994.054993,286.566406 
	C1002.876892,287.768097 1008.728516,293.798706 1011.106750,302.254181 
	C1015.940918,319.441559 1016.036133,336.751007 1010.133667,353.739624 
	C1008.997009,357.011261 1006.087952,359.667206 1003.692505,362.814117 
z"/>
<path fill="#F7F5FF" opacity="1.000000" stroke="none" 
	d="
M1235.415894,310.408508 
	C1236.912842,306.372406 1238.242188,302.689667 1240.119507,297.488831 
	C1245.429321,311.621368 1250.204956,324.332306 1255.166992,337.538879 
	C1245.184692,337.538879 1235.827271,337.538879 1225.785522,337.538879 
	C1229.001099,328.439514 1232.124756,319.600677 1235.415894,310.408508 
z"/>
<path fill="#FBFBFB" opacity="1.000000" stroke="none" 
	d="
M885.006836,65.821800 
	C885.005188,57.716396 885.005188,50.088093 885.005188,42.750881 
	C894.604431,42.750881 903.942139,41.972538 913.083618,42.978138 
	C921.576965,43.912437 925.232056,49.478947 924.842834,57.558968 
	C924.484131,65.005592 919.923645,70.280396 911.907349,70.831429 
	C903.153198,71.433189 894.325684,70.968216 885.008484,70.968216 
	C885.008484,69.511024 885.008484,67.904961 885.006836,65.821800 
z"/>
<path fill="#FBFBFB" opacity="1.000000" stroke="none" 
	d="
M1448.328613,118.744278 
	C1435.526367,121.962578 1427.128174,117.046425 1423.947876,104.641220 
	C1421.620728,95.563400 1421.722412,86.485252 1425.177856,77.696381 
	C1427.777954,71.083115 1432.715698,67.324249 1440.004639,67.002884 
	C1447.393921,66.677094 1453.038696,69.619606 1456.230835,76.325401 
	C1461.618286,87.642754 1461.499390,99.287834 1456.503296,110.581612 
	C1455.086792,113.783531 1451.368896,115.967445 1448.328613,118.744278 
z"/>
<path fill="#FAFAFA" opacity="1.000000" stroke="none" 
	d="
M1270.922607,107.028770 
	C1272.067261,99.035728 1277.160156,94.983871 1287.074829,94.241447 
	C1291.522217,93.908424 1296.015503,94.185089 1300.812988,94.185089 
	C1301.696533,101.234016 1300.661865,107.618225 1296.800781,113.320000 
	C1293.501953,118.191315 1285.953613,120.437637 1279.711792,118.765373 
	C1274.498657,117.368706 1271.700562,113.764694 1270.922607,107.028770 
z"/>
<path fill="#F8F8F8" opacity="1.000000" stroke="none" 
	d="
M1055.165405,86.504257 
	C1052.871216,86.504715 1051.054199,86.504715 1049.280518,86.504715 
	C1048.099854,76.235504 1054.897461,67.496162 1064.157837,67.003700 
	C1075.519653,66.399506 1082.233765,73.542191 1081.850342,86.503792 
	C1073.138062,86.503792 1064.390259,86.503792 1055.165405,86.504257 
z"/>
<path fill="#1B1B1B" opacity="1.000000" stroke="none" 
	d="
M1512.505737,58.286129 
	C1512.454712,48.740948 1512.454712,39.632092 1512.454712,30.181179 
	C1517.105103,30.181179 1521.371948,29.519844 1525.290283,30.403931 
	C1528.098267,31.037485 1531.497314,33.206627 1532.728149,35.650032 
	C1534.359863,38.889477 1532.789917,42.483997 1530.176758,43.836090 
	C1531.488159,49.159389 1532.717651,54.149742 1533.981445,59.279598 
	C1530.794312,60.427929 1528.780273,60.250061 1528.712402,56.523117 
	C1528.703735,56.044193 1528.392944,55.578747 1528.296753,55.092266 
	C1526.526733,46.159206 1526.529175,46.158730 1517.072998,46.845844 
	C1517.072998,50.897488 1517.072998,54.992149 1517.072998,60.086903 
	C1515.157104,59.508087 1513.856934,59.115269 1512.505737,58.286129 
M1517.685303,34.108986 
	C1517.354980,36.895821 1517.024658,39.682655 1516.634888,42.971088 
	C1520.026245,42.738384 1522.629517,43.017025 1524.872803,42.246925 
	C1526.397461,41.723557 1528.603760,39.487568 1528.391479,38.450024 
	C1528.054077,36.801903 1526.194458,34.951576 1524.527832,34.232788 
	C1522.840820,33.505299 1520.605713,34.048702 1517.685303,34.108986 
z"/>
<path fill="#F2F2F2" opacity="1.000000" stroke="none" 
	d="
M1518.147949,34.072197 
	C1520.605713,34.048702 1522.840820,33.505299 1524.527832,34.232788 
	C1526.194458,34.951576 1528.054077,36.801903 1528.391479,38.450024 
	C1528.603760,39.487568 1526.397461,41.723557 1524.872803,42.246925 
	C1522.629517,43.017025 1520.026245,42.738384 1516.634888,42.971088 
	C1517.024658,39.682655 1517.354980,36.895821 1518.147949,34.072197 
z"/>
</svg>